<svg xmlns="http://www.w3.org/2000/svg" viewBox="0 0 512 512">
<defs>
 <linearGradient id="g" x1="0" y1="0" x2="1" y2="1"><stop offset="0" stop-color="#FDE68A"/><stop offset=".5" stop-color="#D4AF37"/><stop offset="1" stop-color="#92400E"/></linearGradient>
 <radialGradient id="bg" cx=".5" cy=".35" r=".75"><stop offset="0" stop-color="#145C2F"/><stop offset="1" stop-color="#020617"/></radialGradient>
 <filter id="shadow"><feDropShadow dx="0" dy="14" stdDeviation="18" flood-color="#000" flood-opacity=".65"/></filter>
</defs>
<rect width="512" height="512" rx="116" fill="url(#bg)"/>
<path d="M256 36 444 114v178c0 104-76 159-188 184C144 451 68 396 68 292V114Z" fill="#062818" stroke="url(#g)" stroke-width="18" filter="url(#shadow)"/>
<path d="M116 303 162 165l62 78 32-120 32 120 62-78 46 138H116Z" fill="url(#g)" filter="url(#shadow)"/>
<path d="M256 343c-48-40-78-82-78-120 0-44 40-72 78-26 38-46 78-18 78 26 0 38-30 80-78 120Z" fill="#0B3F1D" stroke="url(#g)" stroke-width="9"/>
<text x="256" y="431" text-anchor="middle" font-family="Arial, sans-serif" font-size="54" font-weight="900" fill="#FDE68A">WZ</text>
</svg>