<svg xmlns="http://www.w3.org/2000/svg" viewBox="0 0 160 160"><defs><radialGradient id="g" cx="35%" cy="18%" r="95%"><stop stop-color="#fff" stop-opacity=".24"/><stop offset=".45" stop-color="#65a30d"/><stop offset="1" stop-color="#020617"/></radialGradient><filter id="shadow"><feDropShadow dx="0" dy="12" stdDeviation="9" flood-opacity=".38"/></filter></defs><rect width="160" height="160" rx="34" fill="url(#g)"/><circle cx="80" cy="76" r="45" fill="#f3c6a5" filter="url(#shadow)"/><path d="M33 70c6-38 29-56 56-52 31 4 48 29 38 66-15-22-56-26-94-14z" fill="#2b160d"/><path d="M43 65c12-30 54-48 82-7-32-15-62-10-82 7z" fill="#fff" opacity=".08"/><circle cx="64" cy="78" r="5" fill="#0f172a"/><circle cx="96" cy="78" r="5" fill="#0f172a"/><path d="M68 101c8 7 17 7 25 0" fill="none" stroke="#7f1d1d" stroke-width="5" stroke-linecap="round"/><path d="M32 158c8-38 27-56 48-56s40 18 48 56" fill="#f8fafc"/><path d="M56 136h48" stroke="#cbd5e1" stroke-width="8" stroke-linecap="round"/><circle cx="122" cy="34" r="15" fill="#facc15"/><path d="M116 34h12M122 28v12" stroke="#0f172a" stroke-width="3" stroke-linecap="round"/></svg>